<svg width="255" height="188" viewBox="0 0 255 188" fill="none" xmlns="http://www.w3.org/2000/svg">
<path d="M17.7902 140.855C-15.8098 130.055 5.79023 112.021 20.7902 104.355L84.7902 57.3546L97.7902 50.8546C104.79 45.3546 134.29 47.3546 134.29 47.3546L231.29 72.8546C281.29 87.3546 236.29 115.855 236.29 115.855L152.29 177.855C140.624 183.687 112.99 192.753 95.7902 182.355C83.7902 173.021 24.0124 142.855 17.7902 140.855Z" fill="url(#paint0_linear)"/>
<path d="M17.7902 116.855C-15.8098 106.055 5.79023 88.0212 20.7902 80.3546L84.7902 33.3546L97.7902 26.8546C104.79 21.3546 134.29 23.3546 134.29 23.3546L231.29 48.8546C281.29 63.3546 236.29 91.8546 236.29 91.8546L152.29 153.855C140.624 159.687 112.99 168.753 95.7902 158.355C83.7902 149.021 24.0124 118.855 17.7902 116.855Z" fill="url(#paint1_linear)"/>
<path d="M17.7902 93.8546C-15.8098 83.0546 5.79023 65.0212 20.7902 57.3546L84.7902 10.3546L97.7902 3.85457C104.79 -1.64543 134.29 0.354571 134.29 0.354571L231.29 25.8546C281.29 40.3546 236.29 68.8546 236.29 68.8546L152.29 130.855C140.624 136.687 112.99 145.753 95.7902 135.355C83.7902 126.021 24.0124 95.8546 17.7902 93.8546Z" fill="url(#paint2_linear)"/>
<defs>
<linearGradient id="paint0_linear" x1="127.444" y1="47" x2="127.444" y2="187.106" gradientUnits="userSpaceOnUse">
<stop stop-color="#8600EF"/>
<stop offset="1" stop-color="#3B0069"/>
</linearGradient>
<linearGradient id="paint1_linear" x1="127.444" y1="23" x2="127.444" y2="163.106" gradientUnits="userSpaceOnUse">
<stop stop-color="#8600EF"/>
<stop offset="1" stop-color="#3B0069"/>
</linearGradient>
<linearGradient id="paint2_linear" x1="127.444" y1="0" x2="127.444" y2="140.106" gradientUnits="userSpaceOnUse">
<stop stop-color="#8600EF"/>
<stop offset="1" stop-color="#3B0069"/>
</linearGradient>
</defs>
</svg>
